<svg style="display:none"><symbol viewBox="0 0 18.695 30.321" id="arrow-left"><title>arrow-left</title> <polyline style="fill:none;stroke:#000000;stroke-width:5;stroke-linecap:square;stroke-miterlimit:10;" points="15.16,3.535 
	3.535,15.16 15.16,26.786 "/> </symbol><symbol viewBox="0 0 18.695 30.32" id="arrow-right"><title>arrow-right</title> <polyline style="fill:none;stroke:#000000;stroke-width:5;stroke-linecap:square;stroke-miterlimit:10;" points="3.535,26.785 
	15.16,15.16 3.535,3.535 "/> </symbol><symbol viewBox="3.759 1.919 86.215 25.618" id="logo-envoy"><title>logo-envoy</title> <g> <polygon points="80.034,27.538 80.034,16.641 74.738,1.919 79.825,1.919 82.398,9.067 84.901,1.919 89.974,1.919 84.822,16.629 
		84.822,27.538 	"/> <polygon points="3.759,27.538 3.759,1.932 16.873,1.932 16.873,6.721 8.547,6.721 8.547,12.341 14.271,12.341 14.271,17.129 
		8.547,17.129 8.547,22.749 16.873,22.749 16.873,27.538 	"/> <polygon points="45.133,27.538 40.199,1.919 45.074,1.919 47.611,15.051 50.145,1.919 55.021,1.919 50.087,27.538 	"/> <path d="M65.097,27.538c-4.045,0-7.338-3.291-7.338-7.338V9.27c0-4.045,3.293-7.338,7.338-7.338c4.046,0,7.338,3.293,7.338,7.338
		V20.2C72.435,24.247,69.143,27.538,65.097,27.538L65.097,27.538z M65.097,6.721c-1.406,0-2.55,1.144-2.55,2.549V20.2
		c0,1.406,1.144,2.549,2.55,2.549c1.407,0,2.551-1.143,2.551-2.549V9.27C67.648,7.865,66.504,6.721,65.097,6.721L65.097,6.721z"/> <polygon points="31.338,27.538 26.255,14.805 26.255,27.538 21.468,27.538 21.468,1.932 26.272,1.932 31.355,14.666 31.355,1.932 
		36.144,1.932 36.144,27.538 	"/> </g> </symbol><symbol viewBox="0 0 66.809 54.295" id="logo-twitter"><title>logo-twitter</title> <path d="M66.809,6.427c-2.458,1.09-5.099,1.827-7.872,2.159c2.83-1.696,5.004-4.383,6.026-7.583
	c-2.647,1.571-5.581,2.711-8.703,3.326C53.759,1.665,50.197,0,46.255,0c-7.57,0-13.708,6.137-13.708,13.707
	c0,1.075,0.121,2.121,0.355,3.124C21.511,16.259,11.412,10.802,4.651,2.509C3.471,4.534,2.795,6.888,2.795,9.4
	c0,4.755,2.42,8.951,6.098,11.409c-2.247-0.071-4.36-0.688-6.208-1.714c-0.001,0.058-0.001,0.115-0.001,0.172
	c0,6.642,4.725,12.181,10.996,13.441c-1.15,0.312-2.361,0.48-3.611,0.48c-0.883,0-1.742-0.086-2.579-0.246
	c1.744,5.445,6.806,9.408,12.804,9.52c-4.691,3.676-10.601,5.867-17.023,5.867c-1.106,0-2.197-0.065-3.27-0.191
	c6.066,3.889,13.271,6.158,21.011,6.158c25.212,0,38.999-20.887,38.999-39c0-0.594-0.014-1.185-0.04-1.773
	C62.648,11.59,64.972,9.176,66.809,6.427z"/> </symbol></svg>