<?xml version="1.0" encoding="iso-8859-1"?>
<!-- Generator: Adobe Illustrator 16.0.0, SVG Export Plug-In . SVG Version: 6.00 Build 0)  -->
<!DOCTYPE svg PUBLIC "-//W3C//DTD SVG 1.1//EN" "http://www.w3.org/Graphics/SVG/1.1/DTD/svg11.dtd">
<svg version="1.1" id="Layer_1" xmlns="http://www.w3.org/2000/svg" xmlns:xlink="http://www.w3.org/1999/xlink" x="0px" y="0px"
	 width="66.809px" height="54.295px" viewBox="0 0 66.809 54.295" style="enable-background:new 0 0 66.809 54.295;"
	 xml:space="preserve">
<path d="M66.809,6.427c-2.458,1.09-5.099,1.827-7.872,2.159c2.83-1.696,5.004-4.383,6.026-7.583
	c-2.647,1.571-5.581,2.711-8.703,3.326C53.759,1.665,50.197,0,46.255,0c-7.57,0-13.708,6.137-13.708,13.707
	c0,1.075,0.121,2.121,0.355,3.124C21.511,16.259,11.412,10.802,4.651,2.509C3.471,4.534,2.795,6.888,2.795,9.4
	c0,4.755,2.42,8.951,6.098,11.409c-2.247-0.071-4.36-0.688-6.208-1.714c-0.001,0.058-0.001,0.115-0.001,0.172
	c0,6.642,4.725,12.181,10.996,13.441c-1.15,0.312-2.361,0.48-3.611,0.48c-0.883,0-1.742-0.086-2.579-0.246
	c1.744,5.445,6.806,9.408,12.804,9.52c-4.691,3.676-10.601,5.867-17.023,5.867c-1.106,0-2.197-0.065-3.27-0.191
	c6.066,3.889,13.271,6.158,21.011,6.158c25.212,0,38.999-20.887,38.999-39c0-0.594-0.014-1.185-0.04-1.773
	C62.648,11.59,64.972,9.176,66.809,6.427z"/>
</svg>
