<?xml version="1.0" encoding="iso-8859-1"?>
<!-- Generator: Adobe Illustrator 16.0.0, SVG Export Plug-In . SVG Version: 6.00 Build 0)  -->
<!DOCTYPE svg PUBLIC "-//W3C//DTD SVG 1.1//EN" "http://www.w3.org/Graphics/SVG/1.1/DTD/svg11.dtd">
<svg version="1.1" id="Layer_1" xmlns="http://www.w3.org/2000/svg" xmlns:xlink="http://www.w3.org/1999/xlink" x="0px" y="0px"
	 width="86.215px" height="25.618px" viewBox="3.759 1.919 86.215 25.618"
	 style="enable-background:new 3.759 1.919 86.215 25.618;" xml:space="preserve">
<g>
	<polygon points="80.034,27.538 80.034,16.641 74.738,1.919 79.825,1.919 82.398,9.067 84.901,1.919 89.974,1.919 84.822,16.629 
		84.822,27.538 	"/>
	<polygon points="3.759,27.538 3.759,1.932 16.873,1.932 16.873,6.721 8.547,6.721 8.547,12.341 14.271,12.341 14.271,17.129 
		8.547,17.129 8.547,22.749 16.873,22.749 16.873,27.538 	"/>
	<polygon points="45.133,27.538 40.199,1.919 45.074,1.919 47.611,15.051 50.145,1.919 55.021,1.919 50.087,27.538 	"/>
	<path d="M65.097,27.538c-4.045,0-7.338-3.291-7.338-7.338V9.27c0-4.045,3.293-7.338,7.338-7.338c4.046,0,7.338,3.293,7.338,7.338
		V20.2C72.435,24.247,69.143,27.538,65.097,27.538L65.097,27.538z M65.097,6.721c-1.406,0-2.55,1.144-2.55,2.549V20.2
		c0,1.406,1.144,2.549,2.55,2.549c1.407,0,2.551-1.143,2.551-2.549V9.27C67.648,7.865,66.504,6.721,65.097,6.721L65.097,6.721z"/>
	<polygon points="31.338,27.538 26.255,14.805 26.255,27.538 21.468,27.538 21.468,1.932 26.272,1.932 31.355,14.666 31.355,1.932 
		36.144,1.932 36.144,27.538 	"/>
</g>
</svg>
